<svg width="162" height="20" viewBox="0 0 162 20" fill="none" xmlns="http://www.w3.org/2000/svg">
<path d="M13.616 14.2C13.616 15.688 12.976 16.864 11.696 17.728C10.432 18.576 8.656 19 6.368 19H0.728V1.528H6.512C8.464 1.528 9.96 1.888 11 2.608C12.04 3.312 12.56 4.312 12.56 5.608C12.56 6.664 12.168 7.56 11.384 8.296C10.6 9.016 9.584 9.504 8.336 9.76V9.808C9.888 9.904 11.152 10.344 12.128 11.128C13.12 11.896 13.616 12.92 13.616 14.2ZM5.912 1.912H3.176V9.808H6.272C7.392 9.808 8.288 9.44 8.96 8.704C9.632 7.968 9.968 7.024 9.968 5.872C9.968 4.688 9.616 3.736 8.912 3.016C8.208 2.28 7.208 1.912 5.912 1.912ZM10.928 14.536C10.928 13.224 10.544 12.176 9.776 11.392C9.008 10.592 7.976 10.192 6.68 10.192H3.176V18.448C3.432 18.512 3.8 18.552 4.28 18.568C4.984 18.6 5.44 18.616 5.648 18.616C9.168 18.616 10.928 17.256 10.928 14.536ZM26.5681 16.816L27.0961 18.544L24.9601 19.216L24.2881 17.128V17.08C22.9281 18.552 21.3921 19.288 19.6801 19.288C16.9441 19.288 15.5761 17.784 15.5761 14.776V6.64L17.7601 5.992H17.8561V14.824C17.8561 15.752 18.0241 16.592 18.3601 17.344C18.6961 18.08 19.4641 18.448 20.6641 18.448C21.2561 18.448 21.8721 18.28 22.5121 17.944C23.1681 17.592 23.7601 17.12 24.2881 16.528V6.64L26.4721 5.992H26.5681V16.816ZM28.5442 18.136L28.9042 16.912C30.0722 18.272 31.5442 18.952 33.3202 18.952C34.2642 18.952 35.0162 18.728 35.5762 18.28C36.1522 17.816 36.4402 17.224 36.4402 16.504C36.3922 15.816 36.1522 15.296 35.7202 14.944C35.3042 14.592 34.5522 14.184 33.4642 13.72L32.4802 13.312C31.8882 13.072 31.2642 12.776 30.6082 12.424C29.3922 11.688 28.7842 10.704 28.7842 9.472C28.7842 8.448 29.1922 7.608 30.0082 6.952C30.8402 6.296 31.9202 5.968 33.2482 5.968C34.8482 5.968 36.2322 6.304 37.4002 6.976L37.0642 8.104C35.8642 6.904 34.5202 6.304 33.0322 6.304C32.2002 6.304 31.5362 6.512 31.0402 6.928C30.5602 7.328 30.3202 7.848 30.3202 8.488C30.3202 8.952 30.4642 9.352 30.7522 9.688C31.0242 9.992 31.3122 10.232 31.6162 10.408C31.9362 10.584 32.5042 10.84 33.3202 11.176L34.2802 11.584C34.9682 11.856 35.5762 12.144 36.1042 12.448C37.3522 13.184 37.9762 14.2 37.9762 15.496C37.9762 16.616 37.5362 17.528 36.6562 18.232C35.7762 18.936 34.5842 19.288 33.0802 19.288C32.2642 19.288 31.4322 19.184 30.5842 18.976C29.7522 18.768 29.0722 18.488 28.5442 18.136ZM41.0368 3.976L39.4048 2.344L41.0368 0.711999L42.6688 2.344L41.0368 3.976ZM39.9088 19V6.64L42.0688 5.992H42.1648V19H39.9088ZM56.033 10.504V19H53.753V10.456C53.753 9.528 53.585 8.696 53.249 7.96C52.913 7.208 52.145 6.832 50.945 6.832C49.665 6.832 48.441 7.4 47.273 8.536V19H44.993V6.64L47.177 5.992H47.273V8.056C48.745 6.664 50.297 5.968 51.929 5.968C54.665 5.968 56.033 7.48 56.033 10.504ZM69.6959 11.728H60.4799V12.16C60.4799 14.064 60.8959 15.56 61.7279 16.648C62.5759 17.72 63.6719 18.256 65.0159 18.256C65.8159 18.256 66.5919 18.056 67.3439 17.656C68.1119 17.256 68.7519 16.688 69.2639 15.952L69.5519 16.12C68.1759 18.232 66.3359 19.288 64.0319 19.288C62.2879 19.288 60.8559 18.696 59.7359 17.512C58.6159 16.312 58.0559 14.752 58.0559 12.832C58.0559 10.8 58.6639 9.152 59.8799 7.888C61.0959 6.608 62.6399 5.968 64.5119 5.968C66.1759 5.968 67.4639 6.488 68.3759 7.528C69.2879 8.568 69.7279 9.968 69.6959 11.728ZM60.5039 11.344H67.5119C67.5759 9.84 67.3119 8.632 66.7199 7.72C66.1439 6.792 65.3439 6.328 64.3199 6.328C63.2799 6.328 62.4159 6.792 61.7279 7.72C61.0399 8.632 60.6319 9.84 60.5039 11.344ZM70.8723 18.136L71.2323 16.912C72.4003 18.272 73.8723 18.952 75.6483 18.952C76.5923 18.952 77.3443 18.728 77.9043 18.28C78.4803 17.816 78.7683 17.224 78.7683 16.504C78.7203 15.816 78.4803 15.296 78.0483 14.944C77.6323 14.592 76.8803 14.184 75.7923 13.72L74.8083 13.312C74.2163 13.072 73.5923 12.776 72.9363 12.424C71.7203 11.688 71.1123 10.704 71.1123 9.472C71.1123 8.448 71.5203 7.608 72.3363 6.952C73.1683 6.296 74.2483 5.968 75.5763 5.968C77.1763 5.968 78.5603 6.304 79.7283 6.976L79.3923 8.104C78.1923 6.904 76.8483 6.304 75.3603 6.304C74.5283 6.304 73.8643 6.512 73.3683 6.928C72.8883 7.328 72.6483 7.848 72.6483 8.488C72.6483 8.952 72.7923 9.352 73.0803 9.688C73.3523 9.992 73.6403 10.232 73.9443 10.408C74.2643 10.584 74.8323 10.84 75.6483 11.176L76.6083 11.584C77.2963 11.856 77.9043 12.144 78.4323 12.448C79.6803 13.184 80.3043 14.2 80.3043 15.496C80.3043 16.616 79.8643 17.528 78.9843 18.232C78.1043 18.936 76.9123 19.288 75.4083 19.288C74.5923 19.288 73.7603 19.184 72.9123 18.976C72.0803 18.768 71.4003 18.488 70.8723 18.136ZM81.3254 18.136L81.6854 16.912C82.8534 18.272 84.3254 18.952 86.1014 18.952C87.0454 18.952 87.7974 18.728 88.3574 18.28C88.9334 17.816 89.2214 17.224 89.2214 16.504C89.1734 15.816 88.9334 15.296 88.5014 14.944C88.0854 14.592 87.3334 14.184 86.2454 13.72L85.2614 13.312C84.6694 13.072 84.0454 12.776 83.3894 12.424C82.1734 11.688 81.5654 10.704 81.5654 9.472C81.5654 8.448 81.9734 7.608 82.7894 6.952C83.6214 6.296 84.7014 5.968 86.0294 5.968C87.6294 5.968 89.0134 6.304 90.1814 6.976L89.8454 8.104C88.6454 6.904 87.3014 6.304 85.8134 6.304C84.9814 6.304 84.3174 6.512 83.8214 6.928C83.3414 7.328 83.1014 7.848 83.1014 8.488C83.1014 8.952 83.2454 9.352 83.5334 9.688C83.8054 9.992 84.0934 10.232 84.3974 10.408C84.7174 10.584 85.2854 10.84 86.1014 11.176L87.0614 11.584C87.7494 11.856 88.3574 12.144 88.8854 12.448C90.1334 13.184 90.7574 14.2 90.7574 15.496C90.7574 16.616 90.3174 17.528 89.4374 18.232C88.5574 18.936 87.3654 19.288 85.8614 19.288C85.0454 19.288 84.2134 19.184 83.3654 18.976C82.5334 18.768 81.8534 18.488 81.3254 18.136ZM109.562 1.528H111.53C111.034 3.576 110.786 6.12 110.786 9.16V19.288H110.474L98.9296 4.336V11.368C98.9296 14.408 99.1776 16.952 99.6736 19H97.7056C98.2016 16.952 98.4496 14.408 98.4496 11.368V3.712L96.8176 1.6V1.528H101.354L110.306 13.36V9.16C110.306 6.12 110.058 3.576 109.562 1.528ZM125.423 18.304V18.448C124.623 18.976 123.727 19.24 122.735 19.24C121.311 19.24 120.487 18.632 120.263 17.416C119.079 18.632 117.695 19.24 116.111 19.24C115.103 19.24 114.287 18.96 113.663 18.4C113.039 17.824 112.727 17.08 112.727 16.168C112.727 15.08 113.191 14.184 114.119 13.48C115.063 12.76 116.359 12.312 118.007 12.136C118.871 12.072 119.615 12.008 120.239 11.944V10.624C120.239 9.408 120.047 8.464 119.663 7.792C119.311 7.104 118.543 6.76 117.359 6.76C116.127 6.76 114.943 7.208 113.807 8.104L113.591 7.84C114.359 7.136 115.127 6.624 115.895 6.304C116.679 5.968 117.615 5.8 118.703 5.8C122.095 5.8 123.791 7.328 123.791 10.384V16.528C123.791 17.264 123.855 17.752 123.983 17.992C124.111 18.232 124.431 18.352 124.943 18.352C125.007 18.352 125.167 18.336 125.423 18.304ZM120.239 16.96V12.304C117.519 12.624 116.159 13.76 116.159 15.712C116.159 16.464 116.327 17.048 116.663 17.464C117.015 17.88 117.471 18.088 118.031 18.088C118.799 18.088 119.535 17.712 120.239 16.96ZM147.233 10.384V19H143.681V10.048C143.681 9.264 143.545 8.536 143.273 7.864C143.017 7.224 142.417 6.904 141.473 6.904C140.529 6.904 139.569 7.44 138.593 8.512C138.753 8.992 138.833 9.616 138.833 10.384V19H135.305V10.048C135.305 9.264 135.169 8.536 134.897 7.864C134.641 7.224 134.033 6.904 133.073 6.904C132.145 6.904 131.265 7.352 130.433 8.248V19H126.905V6.568L130.337 5.728H130.433V7.792C131.073 7.104 131.721 6.6 132.377 6.28C133.033 5.96 133.793 5.8 134.657 5.8C136.593 5.8 137.865 6.568 138.473 8.104C139.161 7.304 139.857 6.72 140.561 6.352C141.265 5.984 142.097 5.8 143.057 5.8C144.417 5.8 145.449 6.184 146.153 6.952C146.873 7.72 147.233 8.864 147.233 10.384ZM161.541 11.704H152.805V11.8C152.805 13.768 153.189 15.272 153.957 16.312C154.725 17.352 155.773 17.872 157.101 17.872C158.733 17.872 160.109 17.168 161.229 15.76L161.517 15.928C159.997 18.168 157.981 19.288 155.469 19.288C153.613 19.288 152.093 18.696 150.909 17.512C149.725 16.328 149.133 14.76 149.133 12.808C149.133 10.712 149.773 9.024 151.053 7.744C152.349 6.448 154.013 5.8 156.045 5.8C157.917 5.8 159.317 6.352 160.245 7.456C161.189 8.56 161.621 9.976 161.541 11.704ZM152.805 11.32H158.397C158.429 10.712 158.445 10.384 158.445 10.336C158.445 9.088 158.205 8.08 157.725 7.312C157.245 6.544 156.621 6.16 155.853 6.16C154.973 6.16 154.261 6.648 153.717 7.624C153.189 8.552 152.885 9.784 152.805 11.32Z" fill="white"/>
</svg>
